<svg width="135" height="28" viewBox="0 0 135 28" fill="none" xmlns="http://www.w3.org/2000/svg">
<path fill-rule="evenodd" clip-rule="evenodd" d="M18.3304 15.1946V13.9428V12.6904L17.3008 12.2736L17.2246 12.2428V12.1607V10.6606H15.7245H15.6423L15.6116 10.5844L15.1948 9.55478H13.9424H12.6906L12.2736 10.5844L12.2424 10.6606H12.1609H10.6606V12.1607V12.2428L10.5844 12.2736L9.55492 12.6904V13.9428V15.1946L10.5844 15.6114L10.6606 15.6428V15.7243V17.2244H12.1609H12.2424L12.2736 17.3007L12.6906 18.3303H13.9424H15.1948L15.6116 17.3007L15.6423 17.2244H15.7245H17.2246V15.7243V15.6428L17.3008 15.6114L18.3304 15.1946ZM17.3893 17.3828L17.3849 17.3847L17.3828 17.3891L14.7945 24.363L15.3628 25.4312L18.0777 18.1393L18.0968 18.0875L18.149 18.0678L25.4307 15.3628L24.3632 14.7945L17.3893 17.3828ZM10.5024 17.3891L10.5005 17.3847L10.4961 17.3828L3.5222 14.7945L2.45447 15.3628L9.73616 18.0678L9.79048 18.0884L9.79191 18.0933L9.79679 18.0947L9.81725 18.149L12.5224 25.4307L13.0907 24.363L10.5024 17.3891ZM10.4961 10.5022L10.5005 10.5003L10.5024 10.4959L13.0907 3.52205L12.5224 2.45432L9.81725 9.73601L9.80702 9.76293L9.78986 9.7801L9.7801 9.78986L9.76262 9.80734L9.73616 9.81726L2.45447 12.5223L3.5222 13.0905L10.4961 10.5022ZM17.3828 10.4959L17.3849 10.5003L17.3893 10.5022L24.3632 13.0905L25.4307 12.5223L18.149 9.81726L18.0944 9.7971L18.0928 9.79223L18.0879 9.79081L18.068 9.73601L15.3628 2.45432L14.7945 3.52205L17.3828 10.4959ZM7.57252 8.86038L8.5083 8.49885L8.86006 7.57284V7.57236L11.6965 0.179817L11.6976 0.177772L11.7381 0.0766844L11.7685 0H11.851H11.959H12.925H13.033H13.1151L13.1459 0.0766844L13.1845 0.173374L13.937 1.77174L14.7007 0.173374L14.7394 0.0766844L14.7697 0H14.8522H14.9602H15.9262H16.0342H16.1164L16.1471 0.0766844L16.1877 0.177772L16.1882 0.179817L19.3887 8.50074L27.7054 11.697L27.7074 11.6975L27.8085 11.7381L27.8852 11.7688V11.8508V11.9589V12.9249V13.0329V13.1156L27.8085 13.1458L27.7117 13.1844L26.1135 13.9482L27.7117 14.7007L27.8085 14.7393L27.8852 14.77V14.8522V14.9602V15.9262V16.0342V16.1167L27.8085 16.147L27.7074 16.1876L27.7054 16.1885L20.3128 19.0252L19.3799 19.4013L19.0247 20.3127H19.0251L16.1887 27.7052L16.1877 27.7073L16.1471 27.8084L16.1164 27.885H16.0342H15.9262H14.9602H14.8522H14.7697L14.7394 27.8084L14.7007 27.7117L13.937 26.1133L13.1845 27.7117L13.1459 27.8084L13.1151 27.885H13.033H12.925H11.959H11.851H11.7685L11.7381 27.8084L11.6976 27.7073L11.6965 27.7052L8.50043 19.372L0.179817 16.1885L0.177926 16.1876L0.0766844 16.147L0 16.1167V16.0342V15.9262V14.9602V14.8522V14.77L0.0766844 14.7393L0.17352 14.7007L1.77188 13.9482L0.17352 13.1844L0.0766844 13.1458L0 13.1156V13.0329V12.9249V11.9589V11.8508V11.7688L0.0766844 11.7381L0.177926 11.6975L0.179817 11.6965L7.57252 8.85991V8.86038ZM13.9424 6.05667L13.3306 7.91642H13.9424H14.5547L13.9424 6.05667ZM6.05666 13.9428L7.91641 14.5546V13.9428V13.3305L6.05666 13.9428ZM13.3306 19.9686L13.9424 21.8284L14.5547 19.9686H13.9424H13.3306ZM19.9688 14.5546L21.8285 13.9428L19.9688 13.3305V13.9428V14.5546ZM83.9956 6.74146C84.3533 6.37096 84.8627 6.16121 85.4662 6.16121H89.2092C89.8127 6.16121 90.3219 6.37096 90.6797 6.74146C91.0329 7.10724 91.2373 7.62874 91.2373 8.25763V19.6317C91.2373 20.261 91.0329 20.7824 90.6797 21.1483C90.3219 21.5187 89.8127 21.7284 89.2092 21.7284H85.4662C84.8627 21.7284 84.3533 21.5187 83.9956 21.1483C83.6424 20.7824 83.4381 20.261 83.4381 19.6317V8.25763C83.4381 7.62874 83.6424 7.10724 83.9956 6.74146ZM55.664 6.16593H57.3316V6.15682H57.4165H60.9925C61.598 6.15682 62.1089 6.35851 62.467 6.72208C62.8181 7.07841 63.0206 7.58874 63.0206 8.21527V11.9236C63.0206 12.158 62.9486 12.4024 62.8239 12.6307C62.7121 12.8354 62.5564 13.0286 62.3714 13.191C62.5578 13.3818 62.7143 13.6144 62.8268 13.8649C62.9499 14.14 63.0206 14.4379 63.0206 14.7275V19.6367C63.0206 20.2656 62.8164 20.7874 62.463 21.1529C62.1053 21.5232 61.5961 21.7333 60.9925 21.7333H57.4762H57.1592H55.664H55.5789V21.6484V6.25081V6.16593H55.664ZM57.5612 14.3404V19.7661H60.4616C60.6331 19.7661 60.7612 19.726 60.8434 19.6443C60.9255 19.5626 60.9677 19.4325 60.9677 19.2531V15.0251C60.9677 14.8385 60.9004 14.6623 60.7886 14.5351C60.6844 14.4165 60.54 14.3404 60.3759 14.3404H57.5612ZM57.5612 8.08584V12.2245H60.2901C60.4713 12.2245 60.6488 12.1574 60.7767 12.0431C60.8921 11.9392 60.9677 11.7953 60.9677 11.6258V8.59868C60.9677 8.41902 60.9255 8.28927 60.8434 8.20755C60.7612 8.12583 60.6331 8.08584 60.4616 8.08584H57.5612ZM134.915 21.7284H130.91C130.306 21.7284 129.797 21.5187 129.439 21.1483C129.086 20.7824 128.882 20.261 128.882 19.6317V8.25763C128.882 7.62874 129.086 7.10724 129.439 6.74146C129.797 6.37096 130.306 6.16121 130.91 6.16121H134.915H135V6.24609V8.04348V8.12836H134.915H131.441C131.27 8.12836 131.141 8.16835 131.059 8.25007C130.977 8.33195 130.935 8.46153 130.935 8.64119V19.2484C130.935 19.4279 130.977 19.5577 131.059 19.6394C131.141 19.7211 131.27 19.7613 131.441 19.7613H134.915H135V19.8463V21.6435V21.7284H134.915ZM115.726 15.9315H119.057L119.03 15.8037L117.543 8.80007L117.261 8.79961L115.754 15.8032V15.8034L115.726 15.9315ZM120.291 21.6624L119.441 17.9414H115.342L114.493 21.6624L114.477 21.7284H114.41H112.516H112.41L112.434 21.6253L115.862 6.22783L115.877 6.16121H115.945H118.855H118.923L118.938 6.22783L122.351 21.6253L122.373 21.7284H122.268H120.374H120.306L120.291 21.6624ZM42.4237 15.9315H45.7551L45.7277 15.8037L44.2403 8.80007L43.9591 8.79961L42.4516 15.8032V15.8034L42.4237 15.9315ZM46.9889 21.6624L46.139 17.9414H42.0403L41.1902 21.6624L41.1749 21.7284H41.1075H39.2139H39.1081L39.1312 21.6253L42.5601 6.22783L42.5747 6.16121H42.6427H45.5529H45.6208L45.6356 6.22783L49.0483 21.6253L49.071 21.7284H48.9657H47.0716H47.004L46.9889 21.6624ZM78.15 6.24609V8.08615V8.17103H78.065H74.842V21.6435V21.7284H74.757H72.9421H72.8572V21.6435V8.17103H69.6345H69.5497V8.08615V6.24609V6.16121H69.6345H78.065H78.15V6.24609ZM98.5456 6.16121H100.213V6.15208H100.298H103.874C104.48 6.15208 104.991 6.35379 105.349 6.71736C105.7 7.07369 105.902 7.58386 105.902 8.21055V11.9187C105.902 12.1533 105.83 12.398 105.705 12.6259C105.594 12.8306 105.438 13.0241 105.253 13.1863C105.439 13.3768 105.596 13.6095 105.708 13.8603C105.831 14.1353 105.902 14.4333 105.902 14.7227V19.6317C105.902 20.261 105.698 20.7824 105.345 21.1483C104.987 21.5187 104.478 21.7284 103.874 21.7284H100.358H100.041H98.5456H98.4605V21.6435V6.24609V6.16121H98.5456ZM100.443 14.3359V19.7613H103.343C103.515 19.7613 103.643 19.7211 103.725 19.6394C103.807 19.5577 103.849 19.4279 103.849 19.2484V15.0205C103.849 14.8338 103.782 14.6576 103.67 14.5303C103.566 14.4118 103.421 14.3359 103.257 14.3359H100.443ZM100.443 8.08095V12.2198H103.172C103.353 12.2198 103.53 12.1528 103.658 12.0382H103.658C103.774 11.9346 103.849 11.7905 103.849 11.6211V8.59412C103.849 8.41446 103.807 8.28471 103.725 8.20283C103.643 8.12111 103.515 8.08095 103.343 8.08095H100.443ZM85.6155 19.6394C85.6977 19.7211 85.8259 19.7613 85.9973 19.7613H88.6779C88.8494 19.7613 88.9776 19.7211 89.0598 19.6394C89.1423 19.5577 89.1843 19.4279 89.1843 19.2484V8.64119C89.1843 8.46153 89.1423 8.33195 89.0598 8.25007C88.9776 8.16835 88.8494 8.12836 88.6779 8.12836H85.9973C85.8259 8.12836 85.6977 8.16835 85.6155 8.25007C85.533 8.33195 85.4909 8.46153 85.4909 8.64119V19.2484C85.4909 19.4279 85.533 19.5577 85.6155 19.6394Z" fill="#006455"/>
</svg>
