<svg width="16" height="13" viewBox="0 0 16 13" fill="none" xmlns="http://www.w3.org/2000/svg">
<path d="M5.42446 1.66494H9.82344V0.381216C9.82344 0.170636 9.99426 0 10.2047 0H11.9114C12.1218 0 12.2924 0.170636 12.2924 0.381216V1.66494H13.2433C14.3467 1.66494 15.2479 2.56617 15.2479 3.6695V10.9954C15.2479 12.0988 14.3467 13 13.2433 13H2.00456C0.901223 13 0 12.0988 0 10.9954V3.6695C0 2.56617 0.901223 1.66494 2.00456 1.66494H2.95548V0.381216C2.95548 0.170636 3.12612 0 3.3367 0H5.04324C5.25382 0 5.42446 0.170636 5.42446 0.381216V1.66494ZM2.10838 5.89606H3.16993V6.95761H2.10838V5.89606ZM2.10838 9.34044H3.16993V10.4018H2.10838V9.34044ZM10.069 9.34044H11.1305V10.4018H10.069V9.34044ZM7.4154 9.34044H8.47695V10.4018H7.4154V9.34044ZM4.76198 9.34044H5.82335V10.4018H4.76198V9.34044ZM2.10838 7.61825H3.16993V8.6798H2.10838V7.61825ZM10.069 7.61825H11.1305V8.6798H10.069V7.61825ZM7.4154 7.61825H8.47695V8.6798H7.4154V7.61825ZM4.76198 7.61825H5.82335V8.6798H4.76198V7.61825ZM10.069 5.89606H11.1305V6.95761H10.069V5.89606ZM7.4154 5.89606H8.47695V6.95761H7.4154V5.89606ZM4.76198 5.89606H5.82335V6.95761H4.76198V5.89606ZM0.762432 4.26627H12.036C12.5374 4.26627 12.5374 5.0287 12.036 5.0287H0.762432V10.9954C0.762432 11.6778 1.3222 12.2376 2.00456 12.2376H13.2433C13.9257 12.2376 14.4855 11.6778 14.4855 10.9954V3.6695C14.4855 2.98714 13.9257 2.42738 13.2433 2.42738H12.2924V3.04513C12.2924 3.25552 12.1218 3.42634 11.9114 3.42634H10.2047C9.99426 3.42634 9.82344 3.25552 9.82344 3.04513V2.42738H5.42446V3.04513C5.42446 3.25552 5.25382 3.42634 5.04324 3.42634H3.3367C3.12612 3.42634 2.95548 3.25552 2.95548 3.04513V2.42738H2.00456C1.3222 2.42738 0.762432 2.98714 0.762432 3.6695V4.26627ZM4.66203 0.762432H3.71791V2.66391H4.66203V0.762432ZM11.5302 0.762432H10.5859V2.66391H11.5302V0.762432Z" fill="#006455"/>
</svg>
