<svg width="15" height="15" viewBox="0 0 15 15" fill="none" xmlns="http://www.w3.org/2000/svg">
<path d="M10.5772 14.5H4.38486C3.12347 14.5 2.12964 13.555 2.12964 12.435V6.1C2.12964 5.89 2.28254 5.75 2.51188 5.75C2.74122 5.75 2.89412 5.89 2.89412 6.1V12.435C2.89412 13.205 3.58216 13.8 4.38486 13.8H10.5772C11.4181 13.8 12.0679 13.17 12.0679 12.435V6.1C12.0679 5.89 12.2208 5.75 12.4502 5.75C12.6795 5.75 12.8324 5.89 12.8324 6.1V12.435C12.8324 13.555 11.8003 14.5 10.5772 14.5Z" fill="#006455"/>
<path d="M12.603 2.215H9.69797C9.50685 1.235 8.58947 0.5 7.48097 0.5C6.37247 0.5 5.45509 1.235 5.26397 2.215H2.35894C1.47978 2.215 0.791748 2.845 0.791748 3.65C0.791748 4.455 1.47978 5.05 2.35894 5.05H12.6412C13.5204 5.05 14.2084 4.42 14.2084 3.615C14.2084 2.81 13.4822 2.215 12.603 2.215ZM7.48097 1.2C8.169 1.2 8.74237 1.62 8.89526 2.215H6.02845C6.21957 1.62 6.79294 1.2 7.48097 1.2ZM12.603 4.35H2.35894C1.93847 4.35 1.55623 4.035 1.55623 3.615C1.55623 3.23 1.90025 2.88 2.35894 2.88H12.6412C13.0617 2.88 13.4439 3.195 13.4439 3.615C13.4057 4.035 13.0617 4.35 12.603 4.35Z" fill="#006455"/>
<path d="M4.80534 12.785C4.57599 12.785 4.4231 12.645 4.4231 12.435V6.58999C4.4231 6.37999 4.57599 6.23999 4.80534 6.23999C5.03468 6.23999 5.18758 6.37999 5.18758 6.58999V12.435C5.18758 12.61 4.99646 12.785 4.80534 12.785Z" fill="#006455"/>
<path d="M10.1567 12.785C9.92731 12.785 9.77441 12.645 9.77441 12.435V6.58999C9.77441 6.37999 9.92731 6.23999 10.1567 6.23999C10.386 6.23999 10.5389 6.37999 10.5389 6.58999V12.435C10.5389 12.61 10.3478 12.785 10.1567 12.785Z" fill="#006455"/>
<path d="M7.48087 12.785C7.25153 12.785 7.09863 12.645 7.09863 12.435V6.58999C7.09863 6.37999 7.25153 6.23999 7.48087 6.23999C7.71022 6.23999 7.86312 6.37999 7.86312 6.58999V12.435C7.86312 12.61 7.67199 12.785 7.48087 12.785Z" fill="#006455"/>
</svg>
