<svg width="19" height="19" viewBox="0 0 19 19" fill="none" xmlns="http://www.w3.org/2000/svg">
<circle cx="9.5" cy="9.5" r="9.5" fill="#FFB800"/>
<path d="M8.778 5.2H9.94V10.058L9.702 12.522H9.016L8.778 10.058V5.2ZM8.54 14.356C8.54 14.104 8.61 13.908 8.75 13.768C8.89933 13.6187 9.09533 13.544 9.338 13.544C9.59 13.544 9.79067 13.6187 9.94 13.768C10.0893 13.908 10.164 14.104 10.164 14.356C10.164 14.5987 10.0893 14.7947 9.94 14.944C9.79067 15.0933 9.59 15.168 9.338 15.168C9.09533 15.168 8.89933 15.0933 8.75 14.944C8.61 14.7947 8.54 14.5987 8.54 14.356Z" fill="white"/>
</svg>
