<svg width="271" height="139" viewBox="0 0 271 139" fill="none" xmlns="http://www.w3.org/2000/svg">
<path fill-rule="evenodd" clip-rule="evenodd" d="M146.394 38.8819V35.6783V32.4737L143.756 31.4072L143.56 31.3283V31.1184V27.2795H139.717H139.507L139.428 27.0843L138.36 24.4501H135.152H131.944L130.877 27.0843L130.797 27.2795H130.588H126.745V31.1184V31.3283L126.549 31.4072L123.911 32.4737V35.6783V38.8819L126.549 39.9483L126.745 40.0284V40.2371V44.076H130.588H130.797L130.877 44.2708L131.944 46.9054H135.152H138.36L139.428 44.2708L139.507 44.076H139.717H143.56V40.2371V40.0284L143.756 39.9483L146.394 38.8819ZM143.982 44.4811L143.971 44.486L143.966 44.4973L137.335 62.3429L138.791 65.0761L145.746 46.4166L145.795 46.2841L145.929 46.2342L164.584 39.3118L161.849 37.8577L143.982 44.4811ZM126.339 44.4973L126.334 44.486L126.322 44.4811L108.456 37.8577L105.721 39.3118L124.376 46.2342L124.515 46.2867L124.519 46.2992L124.531 46.3029L124.584 46.4415L131.514 65.0749L132.97 62.3429L126.339 44.4973ZM126.322 26.8744L126.334 26.8695L126.339 26.8582L132.97 9.01263L131.514 6.2806L124.584 24.9137L124.557 24.9828L124.514 25.0266L124.489 25.0515L124.444 25.0964L124.376 25.1213L105.721 32.0437L108.456 33.4978L126.322 26.8744ZM143.966 26.8582L143.971 26.8695L143.982 26.8744L161.849 33.4978L164.584 32.0437L145.929 25.1213L145.789 25.07L145.785 25.0575L145.773 25.0537L145.721 24.9137L138.791 6.2806L137.335 9.01263L143.966 26.8582ZM118.833 22.6732L121.23 21.7479L122.131 19.3783V19.3771L129.398 0.460181L129.401 0.455259L129.505 0.196293L129.582 0H129.794H130.071H132.545H132.822H133.033L133.111 0.196293L133.21 0.443941L135.138 4.53386L137.095 0.443941L137.193 0.196293L137.271 0H137.483H137.76H140.234H140.511H140.721L140.8 0.196293L140.904 0.455259L140.905 0.460181L149.105 21.7528L170.411 29.9315L170.417 29.933L170.675 30.0368L170.872 30.1154V30.3256V30.602V33.0739V33.3502V33.5616L170.675 33.639L170.428 33.7379L166.333 35.6923L170.428 37.6176L170.675 37.7165L170.872 37.7954V38.0053V38.2816V40.7536V41.0299V41.2413L170.675 41.3187L170.417 41.4225L170.411 41.4251L151.472 48.6835L149.082 49.6465L148.172 51.9784H148.174L140.906 70.8954L140.904 70.9003L140.8 71.1592L140.721 71.3555H140.511H140.234H137.76H137.483H137.271L137.193 71.1592L137.095 70.9116L135.138 66.8217L133.21 70.9116L133.111 71.1592L133.033 71.3555H132.822H132.545H130.071H129.794H129.582L129.505 71.1592L129.401 70.9003L129.398 70.8954L121.21 49.5714L99.8933 41.4251L99.8883 41.4225L99.6295 41.3187L99.4329 41.2413V41.0299V40.7536V38.2816V38.0053V37.7954L99.6295 37.7165L99.877 37.6176L103.972 35.6923L99.877 33.7379L99.6295 33.639L99.4329 33.5616V33.3502V33.0739V30.602V30.3256V30.1154L99.6295 30.0368L99.8883 29.933L99.8933 29.9304L118.833 22.672V22.6732ZM135.152 15.4986L133.584 20.2575H135.152H136.72L135.152 15.4986ZM114.949 35.6783L119.714 37.2439V35.6783V34.1117L114.949 35.6783ZM133.584 51.098L135.152 55.8569L136.72 51.098H135.152H133.584ZM150.591 37.2439L155.356 35.6783L150.591 34.1117V35.6783V37.2439ZM127.613 101.63C128.494 100.719 129.748 100.202 131.234 100.202H140.409C141.895 100.202 143.149 100.719 144.031 101.63C144.9 102.529 145.403 103.812 145.403 105.358V133.208C145.403 134.755 144.9 136.037 144.031 136.937C143.149 137.848 141.895 138.364 140.409 138.364H131.234C129.748 138.364 128.494 137.848 127.613 136.937C126.743 136.037 126.24 134.755 126.24 133.208V105.358C126.24 103.812 126.743 102.529 127.613 101.63ZM46.4674 100.214H50.5338V100.192H50.7639H59.5302C61.0209 100.192 62.279 100.689 63.1608 101.583C64.0248 102.459 64.5241 103.714 64.5241 105.254V114.334C64.5241 114.912 64.3468 115.514 64.0391 116.076C63.7674 116.572 63.3899 117.043 62.942 117.438C63.394 117.904 63.7739 118.47 64.0468 119.079C64.3495 119.755 64.5241 120.488 64.5241 121.2V133.22C64.5241 134.766 64.021 136.049 63.1513 136.948C62.2699 137.86 61.0159 138.376 59.5302 138.376H50.9099H50.1328H46.4674H46.2372V138.146V100.444V100.214H46.4674ZM51.14 120.274V133.515H58.2285C58.6431 133.515 58.9516 133.419 59.1492 133.224C59.3461 133.027 59.4474 132.715 59.4474 132.281V121.928C59.4474 121.477 59.2845 121.051 59.0139 120.744C58.7622 120.458 58.4137 120.274 58.0184 120.274H51.14ZM51.14 104.959V115.049H57.8082C58.247 115.049 58.6771 114.887 58.9867 114.61C59.2656 114.361 59.4474 114.012 59.4474 113.605V106.194C59.4474 105.76 59.3465 105.447 59.1492 105.251C58.9516 105.055 58.6431 104.959 58.2285 104.959H51.14ZM270.017 138.364H260.199C258.714 138.364 257.46 137.848 256.578 136.937C255.708 136.037 255.205 134.755 255.205 133.208V105.358C255.205 103.812 255.708 102.529 256.578 101.63C257.46 100.719 258.714 100.202 260.199 100.202H270.017H270.247V100.433V104.833V105.063H270.017H261.501C261.087 105.063 260.777 105.16 260.58 105.355C260.383 105.551 260.282 105.863 260.282 106.297V132.27C260.282 132.703 260.383 133.016 260.58 133.212C260.777 133.407 261.087 133.504 261.501 133.504H270.017H270.247V133.734V138.134V138.364H270.017ZM217.15 124.126H225.262L225.2 123.839L221.557 106.708L220.904 106.707L217.212 123.838V123.839L217.15 124.126ZM228.292 138.186L226.212 129.091H216.2L214.12 138.186L214.078 138.364H213.896H209.254H208.967L209.03 138.085L217.435 100.383L217.475 100.202H217.659H224.793H224.977L225.018 100.383L233.384 138.085L233.445 138.364H233.159H228.516H228.333L228.292 138.186ZM8.18305 124.126H16.2954L16.2338 123.839L12.5911 106.708L11.9373 106.707L8.24579 123.838V123.839L8.18305 124.126ZM19.3255 138.186L17.2452 129.091H7.23285L5.15337 138.186L5.11181 138.364H4.92926H0.28686H0L0.0627461 138.085L8.4688 100.383L8.50844 100.202H8.69254H15.8271H16.0108L16.0513 100.383L24.4169 138.085L24.4785 138.364H24.1927H19.5496H19.3667L19.3255 138.186ZM107.467 100.433V104.938V105.168H107.236H99.3574V138.134V138.364H99.1268H94.6779H94.4477V138.134V105.168H86.5697H86.3395V104.938V100.433V100.202H86.5697H107.236H107.467V100.433ZM169.151 100.202H173.217V100.18H173.447H182.214C183.704 100.18 184.962 100.677 185.844 101.571C186.708 102.448 187.208 103.703 187.208 105.243V114.322C187.208 114.9 187.03 115.501 186.723 116.064C186.451 116.561 186.074 117.031 185.626 117.427C186.077 117.893 186.457 118.459 186.73 119.067C187.033 119.743 187.208 120.476 187.208 121.188V133.208C187.208 134.755 186.704 136.037 185.835 136.937C184.953 137.848 183.699 138.364 182.214 138.364H173.594H172.816H169.151H168.921V138.134V100.433V100.202H169.151ZM173.824 120.263V133.504H180.912C181.326 133.504 181.635 133.408 181.832 133.212C182.029 133.016 182.131 132.703 182.131 132.27V121.917C182.131 121.465 181.968 121.039 181.697 120.732C181.446 120.446 181.098 120.263 180.702 120.263H173.824ZM173.824 104.948V115.037H180.491C180.93 115.037 181.36 114.876 181.67 114.599C181.949 114.349 182.131 114.001 182.131 113.593V106.182C182.131 105.748 182.03 105.436 181.832 105.239C181.635 105.043 181.326 104.948 180.912 104.948H173.824ZM131.616 133.212C131.813 133.407 132.122 133.504 132.536 133.504H139.108C139.522 133.504 139.83 133.408 140.028 133.212C140.225 133.016 140.326 132.703 140.326 132.27V106.297C140.326 105.863 140.225 105.551 140.028 105.355C139.83 105.159 139.522 105.063 139.108 105.063H132.536C132.122 105.063 131.813 105.16 131.616 105.355C131.418 105.551 131.317 105.863 131.317 106.297V132.27C131.317 132.703 131.419 133.016 131.616 133.212Z" fill="#006455"/>
</svg>
