<svg width="18" height="18" viewBox="0 0 18 18" fill="none" xmlns="http://www.w3.org/2000/svg">
<path d="M0.0878835 0.0928268C0.0386687 0.138525 0 0.219379 0 0.268593C0 0.317808 0.0386687 0.398661 0.0878835 0.444361L0.172252 0.532244H4.78789C8.70398 0.532244 9.4422 0.542789 9.64961 0.584974C9.97653 0.655281 10.4124 0.873232 10.6515 1.09118L10.8448 1.26695L5.49448 1.27047H0.144129L0.0738221 1.36186C-0.0175767 1.47787 -0.021092 1.59036 0.0667915 1.69582L0.133583 1.78019L6.47526 1.79777C12.5181 1.81534 12.824 1.81886 13.0068 1.87862C13.6571 2.10009 14.1387 2.50786 14.4516 3.10547C14.5289 3.25663 14.6203 3.39373 14.659 3.41482C14.6976 3.43591 15.0035 3.44998 15.3691 3.44998C16.0792 3.44998 16.1952 3.4781 16.3885 3.68199C16.6803 3.99485 17.1865 5.49942 17.422 6.76494C17.4783 7.08484 17.4818 7.11296 17.4255 7.22897C17.3728 7.34146 17.1549 7.49965 17.1549 7.42583C17.1549 7.33443 16.965 6.37122 16.8701 5.9986C16.726 5.41154 16.4237 4.50106 16.276 4.20577C16.167 3.99134 16.1319 3.95267 15.9632 3.86479L15.7768 3.76636H14.6976C13.4673 3.76636 13.4075 3.78042 13.2317 4.04407C13.0806 4.27257 13.0841 4.42724 13.2458 4.85611C13.759 6.22358 14.1563 8.09726 14.4129 10.3365C14.4516 10.674 14.4797 10.9552 14.4727 10.9587C14.4656 10.9658 14.2969 10.9201 14.0965 10.8533L13.7274 10.7408L13.7379 10.6178C13.7766 10.0905 13.4321 7.96719 13.0982 6.66651C12.7537 5.34123 12.6095 5.02133 12.1279 4.53622C11.8748 4.28311 11.7694 4.20577 11.4916 4.06868C11.0663 3.86127 10.8343 3.80151 10.3351 3.7769C9.95544 3.75933 9.9238 3.76284 9.83592 3.83666C9.70234 3.93861 9.70585 4.08274 9.83944 4.19874C9.92732 4.27257 9.98708 4.28663 10.3281 4.3042C10.9573 4.33584 11.3686 4.51161 11.7764 4.9229C12.1596 5.30959 12.3142 5.68573 12.6552 7.07078C12.9575 8.29412 13.2845 10.4279 13.186 10.5264C13.1614 10.551 12.8064 10.456 12.0682 10.224C11.4741 10.0377 9.81834 9.52097 8.39112 9.07452C6.60884 8.5191 5.70891 8.22029 5.50854 8.12186C4.75625 7.74924 4.16919 7.10945 3.85633 6.33255C3.73329 6.0232 3.29739 4.45185 3.31145 4.37451C3.322 4.31475 3.46964 4.31123 6.187 4.3042C8.27159 4.29717 9.07309 4.28311 9.12934 4.25499C9.3051 4.16359 9.29807 3.88588 9.11528 3.80503C9.0063 3.75581 3.37824 3.74878 3.20247 3.80151C2.95992 3.87182 2.77712 4.11789 2.77712 4.37803C2.77712 4.5327 3.14623 5.9072 3.32551 6.41692C3.65244 7.35552 4.43636 8.20975 5.36792 8.64213C5.51908 8.71244 5.87413 8.84251 6.15536 8.93391L6.6686 9.09913L9.19613 11.029C10.5847 12.0907 11.8397 13.0715 11.9768 13.2086C12.1666 13.3949 12.265 13.5285 12.3564 13.7218C12.5498 14.1261 12.5849 14.3581 12.5849 15.2685V16.07H10.8483H9.11176L9.09418 15.5498C9.08012 15.1244 9.06255 14.9768 8.98521 14.7202C8.80241 14.105 8.52118 13.655 8.0431 13.2015C7.69156 12.8746 7.32948 12.6567 6.86194 12.4985C5.27301 11.9606 3.53995 12.7164 2.82633 14.2596C2.64705 14.6498 2.5662 15.0295 2.54159 15.5849L2.5205 16.07H1.34638H0.172252L0.0878835 16.1579C0.0386687 16.2036 0 16.2845 0 16.3337C0 16.3829 0.0386687 16.4638 0.0878835 16.5095L0.172252 16.5973H1.90883H3.64892L3.76844 16.7977C3.90906 17.0368 4.04967 17.1036 4.20083 17.0051C4.34496 16.9102 4.34847 16.8012 4.20786 16.4989C4.03561 16.1298 3.99694 15.9611 3.99694 15.6271C4.00046 15.1104 4.17622 14.6991 4.54885 14.33C4.77383 14.1085 5.10076 13.9222 5.37847 13.8589C5.64564 13.7956 6.11669 13.8132 6.3698 13.8905C7.03068 14.0944 7.53337 14.692 7.63532 15.3951C7.71617 15.9505 7.52283 16.5235 7.11505 16.9313C6.60532 17.441 5.84249 17.6063 5.1781 17.3496C4.89687 17.2407 4.77032 17.2336 4.6754 17.318C4.59455 17.3918 4.58049 17.5711 4.64728 17.6625C4.71759 17.7504 5.06209 17.8875 5.38199 17.9543C6.1413 18.1089 6.92522 17.8664 7.48767 17.3004C7.64235 17.1457 7.80054 16.9454 7.86733 16.8153L7.98334 16.5973H12.0682H16.153L16.3288 16.513C16.5221 16.4251 16.7154 16.2282 16.7893 16.049C16.8279 15.954 16.8385 15.5779 16.8385 14.1261C16.8385 12.0133 16.8525 12.1047 16.501 11.7567L16.2831 11.5353L16.2584 11.2822C16.0299 8.78626 15.6116 6.47317 15.0808 4.77174C15.0035 4.52567 14.9402 4.31475 14.9402 4.30772C14.9402 4.30069 15.1124 4.29366 15.3198 4.29366C15.6397 4.29366 15.7101 4.3042 15.7558 4.35342C15.7874 4.38857 15.8823 4.61355 15.9702 4.85611C16.2584 5.65058 16.4588 6.42395 16.5924 7.2606C16.6733 7.75275 16.7154 7.84415 16.8912 7.92852C17.3412 8.14296 17.9985 7.64026 17.9985 7.08484C17.9985 6.77549 17.6646 5.36584 17.4291 4.68035C17.2427 4.13898 16.9791 3.55544 16.842 3.3867C16.7822 3.30936 16.6592 3.19687 16.5678 3.13711C16.3006 2.96134 16.1178 2.92268 15.5062 2.92268L14.9578 2.91916L14.8382 2.70824C14.55 2.20555 14.1492 1.83292 13.6219 1.57278C13.1439 1.33374 12.9786 1.29859 12.2334 1.28101L11.583 1.26344L11.3018 0.992754C10.9433 0.648251 10.6339 0.4303 10.2613 0.254532C9.71288 -0.00560379 9.9695 0.00494194 4.79844 0.00494194H0.172252L0.0878835 0.0928268ZM14.5359 4.79284C14.8347 5.73495 15.1441 7.06375 15.3585 8.3363C15.5308 9.35575 15.7663 11.3595 15.7171 11.3595C15.6784 11.3595 15.0984 11.1661 15.0597 11.1415C15.0386 11.1275 15.0105 10.9833 14.9964 10.8252C14.8242 8.74056 14.3391 6.33607 13.7942 4.82799C13.7063 4.58895 13.643 4.371 13.6536 4.34287C13.6676 4.3042 13.7555 4.29366 14.0227 4.29366H14.3742L14.5359 4.79284ZM12.2334 10.8322C14.7925 11.6302 16.0124 12.0274 16.0932 12.0872C16.3182 12.2559 16.3112 12.1997 16.3112 14.119V15.8662L16.2092 15.9681L16.1073 16.07H14.6133H13.1192L13.1017 15.1279C13.0841 14.0944 13.0665 13.9749 12.8486 13.5214C12.6939 13.1945 12.4267 12.857 12.156 12.6391C12.033 12.5406 11.2948 11.9712 10.5109 11.3736C8.35245 9.72486 8.19074 9.59831 8.19074 9.58424C8.19074 9.56667 7.86733 9.46824 12.2334 10.8322ZM6.5315 12.9449C6.91116 13.0398 7.37167 13.2929 7.66696 13.5671C8.28566 14.1401 8.57743 14.8186 8.57743 15.6869V16.07H8.37705H8.17316V15.6552C8.16965 14.9522 7.97279 14.4741 7.47361 13.9749C7.00607 13.5074 6.4858 13.2929 5.81789 13.2929C5.15349 13.2929 4.6297 13.5074 4.16216 13.9749C3.68408 14.4565 3.46613 14.9979 3.47316 15.6904L3.47667 16.07H3.26224H3.0478L3.06889 15.6025C3.08998 15.0822 3.14271 14.8397 3.32551 14.4565C3.67001 13.7253 4.23598 13.2226 4.99881 12.9765C5.46635 12.8254 6.02178 12.8148 6.5315 12.9449Z" fill="#006455"/>
</svg>
