<svg width="12" height="16" viewBox="0 0 12 16" fill="none" xmlns="http://www.w3.org/2000/svg">
<path d="M6.01766 14C4.42313 14 2.82861 13.738 1.31621 13.2141C0.741356 13.0087 0.303375 12.591 0.111758 12.0458C-0.086702 11.5005 -0.0182675 10.8987 0.296531 10.3606L1.08353 9.00817C1.24777 8.72495 1.39833 8.1585 1.39833 7.82571V5.77941C1.39833 3.14542 3.47189 1 6.01766 1C8.56343 1 10.637 3.14542 10.637 5.77941V7.82571C10.637 8.15142 10.7875 8.72495 10.9518 9.01525L11.7319 10.3606C12.0262 10.8704 12.081 11.4864 11.8825 12.0458C11.684 12.6051 11.2529 13.03 10.7123 13.2141C9.20671 13.738 7.61218 14 6.01766 14ZM6.01766 2.06209C4.0399 2.06209 2.42485 3.72603 2.42485 5.77941V7.82571C2.42485 8.34259 2.21954 9.1073 1.96633 9.55338L1.17934 10.9058C1.02878 11.1678 0.98772 11.4439 1.07669 11.6776C1.15881 11.9183 1.36411 12.1024 1.64469 12.2015C4.50526 13.1928 7.53691 13.1928 10.3975 12.2015C10.6438 12.1166 10.8355 11.9254 10.9244 11.6705C11.0134 11.4156 10.9929 11.1394 10.856 10.9058L10.069 9.55338C9.80893 9.09314 9.61047 8.33551 9.61047 7.81863V5.77941C9.61047 3.72603 8.00226 2.06209 6.01766 2.06209Z" fill="#006455"/>
<path d="M6.71168 1.99656C6.68479 1.99656 6.65789 1.98933 6.63099 1.97486C6.51957 1.91699 6.41198 1.87359 6.30824 1.84465C5.98164 1.76508 5.66657 1.80848 5.37071 1.97486C5.26313 2.03997 5.14786 1.97486 5.07486 1.82295C5.00185 1.67104 4.9788 1.45402 5.02106 1.2587C5.1786 0.499141 5.56283 0 6.00085 0C6.43888 0 6.82311 0.491907 6.98064 1.2587C7.01907 1.45402 6.99986 1.67104 6.92685 1.82295C6.86922 1.93869 6.78853 1.99656 6.71168 1.99656Z" fill="#006455"/>
<path d="M6 15.3518C5.34 15.3518 4.7 15.1384 4.23333 14.7651C3.76666 14.3918 3.5 13.8798 3.5 13.3518H4.5C4.5 13.6664 4.66 13.9758 4.94 14.1998C5.22 14.4238 5.60666 14.5518 6 14.5518C6.82666 14.5518 7.5 14.0131 7.5 13.3518H8.5C8.5 14.4558 7.38 15.3518 6 15.3518Z" fill="#006455"/>
</svg>
