<svg width="15" height="15" viewBox="0 0 15 15" fill="none" xmlns="http://www.w3.org/2000/svg">
<path d="M10.5 3.75C10.5 5.40358 9.15705 6.75 7.5 6.75C5.84295 6.75 4.5 5.40358 4.5 3.75C4.5 2.09234 5.84234 0.75 7.5 0.75C9.15766 0.75 10.5 2.09234 10.5 3.75ZM0.75 13.125C0.75 12.7757 0.918801 12.4149 1.32913 12.0362C1.74467 11.6528 2.35612 11.3037 3.09167 11.0094C4.56397 10.4204 6.34426 10.125 7.5 10.125C8.65574 10.125 10.436 10.4204 11.9083 11.0094C12.6439 11.3037 13.2553 11.6528 13.6709 12.0362C14.0812 12.4149 14.25 12.7757 14.25 13.125V14.25H0.75V13.125Z" stroke="#006455" stroke-width="1.5"/>
</svg>
