<svg width="21" height="22" viewBox="0 0 21 22" fill="none" xmlns="http://www.w3.org/2000/svg">
<path d="M15.2368 5.5C15.2368 8.27165 13.0946 10.4868 10.5 10.4868C7.90543 10.4868 5.76316 8.27165 5.76316 5.5C5.76316 2.7219 7.90502 0.513158 10.5 0.513158C13.095 0.513158 15.2368 2.7219 15.2368 5.5ZM0.513158 19.25C0.513158 18.5133 0.861109 17.8365 1.5054 17.2137C2.15401 16.5867 3.07554 16.0439 4.13668 15.5991C6.26079 14.7089 8.81828 14.2632 10.5 14.2632C12.1817 14.2632 14.7392 14.7089 16.8633 15.5991C17.9245 16.0439 18.846 16.5867 19.4946 17.2137C20.1389 17.8365 20.4868 18.5133 20.4868 19.25V21.4868H0.513158V19.25Z" stroke="#006455" stroke-width="1.02632"/>
</svg>
