<svg width="16" height="15" viewBox="0 0 16 15" fill="none" xmlns="http://www.w3.org/2000/svg">
<path d="M14.9519 12.1141L14.952 12.1144C15.0036 12.2693 15.0109 12.4908 14.9555 12.7255C14.9002 12.9601 14.7948 13.1545 14.6799 13.2694L14.6799 13.2694L13.6175 14.3317C13.6173 14.3314 13.5999 14.3449 13.5533 14.3672C13.5003 14.3924 13.4344 14.4175 13.3641 14.4403C13.295 14.4627 13.2296 14.4804 13.181 14.4923C13.1689 14.4953 13.1583 14.4978 13.1492 14.4999C9.92154 14.5147 6.8176 13.242 4.53309 10.9574C2.24514 8.66947 0.970798 5.55768 0.991458 2.32415C0.993171 2.31748 0.995074 2.3102 0.997161 2.30236C1.00949 2.25606 1.02748 2.19342 1.05007 2.12701C1.07309 2.05938 1.09827 1.99559 1.12366 1.94409C1.14653 1.89771 1.16031 1.88039 1.16004 1.88017C1.16002 1.88015 1.15993 1.88022 1.15977 1.88037L2.22508 0.814087C2.33996 0.699211 2.53434 0.593794 2.76904 0.538432C3.00337 0.48316 3.22456 0.490366 3.37946 0.541723C3.37967 0.541794 3.37988 0.541864 3.3801 0.541935L3.60361 0.617089L3.60482 0.617494C3.76913 0.672269 3.97069 0.805274 4.15179 0.996525C4.3329 1.18781 4.45447 1.39608 4.4999 1.56279L5.03731 3.53458C5.03732 3.53459 5.03732 3.53461 5.03733 3.53463C5.03734 3.53468 5.03736 3.53474 5.03737 3.5348C5.08174 3.69807 5.07993 3.93075 5.01647 4.17481C4.95289 4.41932 4.84182 4.62006 4.72506 4.73682L4.01167 5.45021L3.80712 5.65476L3.8825 5.93405C4.62847 8.6979 6.79561 10.865 9.55979 11.6119L9.83915 11.6874L10.0438 11.4828L10.7571 10.7695C10.8738 10.6528 11.0747 10.5417 11.3196 10.4781C11.564 10.4146 11.7969 10.4128 11.9602 10.4572C11.9603 10.4572 11.9603 10.4572 11.9604 10.4572L13.9309 10.9955L13.9318 10.9957C14.0978 11.0408 14.3057 11.1618 14.4971 11.3428C14.6881 11.5233 14.8217 11.7248 14.8776 11.8901C14.8777 11.8904 14.8778 11.8907 14.8779 11.891L14.9519 12.1141ZM13.2 14.4995L13.1958 14.4996L13.2 14.4995Z" stroke="#006455"/>
</svg>
