<svg width="15" height="17" viewBox="0 0 15 17" fill="none" xmlns="http://www.w3.org/2000/svg">
<path d="M7.2509 6.83341C8.86173 6.83341 10.1676 5.52756 10.1676 3.91671C10.1676 2.30586 8.86173 1 7.2509 1C5.64006 1 4.33423 2.30586 4.33423 3.91671C4.33423 5.52756 5.64006 6.83341 7.2509 6.83341Z" stroke="#006455" stroke-width="1.29803" stroke-linecap="round" stroke-linejoin="round"/>
<path d="M1 15.5V16H13.5V15.5C13.5 13.6331 13.5 12.6997 13.1367 11.9867C12.8171 11.3594 12.3072 10.8495 11.68 10.5299C10.9669 10.1666 10.0335 10.1666 8.16667 10.1666H6.33333C4.4665 10.1666 3.53308 10.1666 2.82003 10.5299C2.19283 10.8495 1.68289 11.3594 1.36331 11.9867C1 12.6997 1 13.6331 1 15.5Z" stroke="#006455" stroke-width="1.29803" stroke-linecap="round" stroke-linejoin="round"/>
</svg>
