<svg width="15" height="16" viewBox="0 0 15 16" fill="none" xmlns="http://www.w3.org/2000/svg">
<path d="M13.125 8.5H11.7067C11.1093 8.5 10.625 8.98429 10.625 9.58169V11.1683C10.625 11.7657 11.1093 12.25 11.7067 12.25H12.0433C12.6407 12.25 13.125 11.7657 13.125 11.1683V8.5C13.125 5.3934 10.6066 2.875 7.5 2.875C4.3934 2.875 1.875 5.3934 1.875 8.5V11.1683C1.875 11.7657 2.35929 12.25 2.95669 12.25H3.29331C3.89071 12.25 4.375 11.7657 4.375 11.1683V9.58169C4.375 8.98429 3.89071 8.5 3.29331 8.5H1.875" stroke="#006455" stroke-width="0.998484"/>
<path d="M13.125 9.75V12.25C13.125 12.25 13.125 14.125 11.875 14.125C10.625 14.125 8.75 14.125 8.75 14.125" stroke="#006455" stroke-width="0.998484" stroke-linejoin="round"/>
</svg>
