<svg width="17" height="19" viewBox="0 0 17 19" fill="none" xmlns="http://www.w3.org/2000/svg">
<path d="M11.0003 12.0501C12.3639 12.0501 13.2729 12.8495 13.2729 13.7501H16V1H13.2729C13.2729 1.85001 12.3639 2.70002 11.0003 2.70002C9.63681 2.70002 8.72779 1.85001 8.72779 1H6.00073V6.95006" stroke="#006455" stroke-width="0.998484" stroke-linecap="round" stroke-linejoin="round"/>
<path d="M10.9992 18H8.27216C8.27216 17.0994 7.36314 16.3 5.99961 16.3C4.63608 16.3 3.72706 17.0994 3.72706 18H1V5.24988H3.72706C3.72706 6.09989 4.63608 6.9499 5.99961 6.9499C7.36314 6.9499 8.27216 6.09989 8.27216 5.24988H10.9992V18Z" stroke="#006455" stroke-width="0.998484" stroke-linecap="round" stroke-linejoin="round"/>
<path d="M3.72738 10.3501C4.22942 10.3501 4.6364 9.96954 4.6364 9.50009C4.6364 9.03065 4.22942 8.65009 3.72738 8.65009C3.22534 8.65009 2.81836 9.03065 2.81836 9.50009C2.81836 9.96954 3.22534 10.3501 3.72738 10.3501Z" fill="#006455"/>
<path d="M6.00082 10.3501C6.50286 10.3501 6.90984 9.96954 6.90984 9.50009C6.90984 9.03065 6.50286 8.65009 6.00082 8.65009C5.49878 8.65009 5.0918 9.03065 5.0918 9.50009C5.0918 9.96954 5.49878 10.3501 6.00082 10.3501Z" fill="#006455"/>
<path d="M8.27328 10.3501C8.77532 10.3501 9.1823 9.96954 9.1823 9.50009C9.1823 9.03065 8.77532 8.65009 8.27328 8.65009C7.77124 8.65009 7.36426 9.03065 7.36426 9.50009C7.36426 9.96954 7.77124 10.3501 8.27328 10.3501Z" fill="#006455"/>
</svg>
