<svg width="15" height="17" viewBox="0 0 15 17" fill="none" xmlns="http://www.w3.org/2000/svg">
<path d="M14.3694 5.55216C14.2901 5.37297 14.0791 5.29028 13.8962 5.36881C13.7143 5.44699 13.6307 5.6557 13.7101 5.8351C14.8297 8.36822 14.2718 11.2672 12.2886 13.2211C11.0092 14.4816 9.30826 15.1759 7.49916 15.1759C5.91978 15.1759 4.42285 14.6466 3.21689 13.6735L5.75394 13.1381C5.9481 13.0971 6.07203 12.9088 6.03026 12.7175C5.98849 12.5262 5.79606 12.4039 5.60371 12.4453L2.38012 13.1255C2.18596 13.1665 2.06203 13.3549 2.1038 13.5461L2.79403 16.7225C2.87644 17.0424 3.18344 17.001 3.22063 16.9947C3.40119 16.9642 3.53868 16.7654 3.49691 16.5741L3.03101 14.4294C4.31565 15.3737 5.86756 15.8843 7.49919 15.8843C9.50034 15.8843 11.3818 15.1164 12.797 13.722C14.9909 11.5609 15.608 8.3542 14.3694 5.55216Z" fill="#006455"/>
<path d="M2.71145 3.7818C5.18915 1.34042 9.12456 1.19 11.7829 3.32956L9.24606 3.86483C9.0519 3.90581 8.92801 4.0942 8.96978 4.28546C9.00595 4.45167 9.15478 4.56545 9.32083 4.56545C9.34041 4.593 12.6203 3.87743 12.6203 3.87743C12.8979 3.81556 12.9166 3.54865 12.8966 3.45681L12.206 0.280533C12.1646 0.0894091 11.9725 -0.0339123 11.7794 0.00828207C11.5853 0.049262 11.4613 0.237645 11.5031 0.428907L11.9696 2.5753C9.03782 0.426236 4.86159 0.661185 2.20304 3.28095C0.00950571 5.44199 -0.60772 8.64894 0.63057 11.451C0.689525 11.5844 0.852407 11.7282 1.10383 11.6344C1.27717 11.5697 1.36926 11.3474 1.28992 11.1681C0.17031 8.63492 0.728194 5.73568 2.71145 3.7818Z" fill="#006455"/>
<path d="M4.12173 8.59877L2.98068 9.72827V10.2583H5.55284V9.65925H3.84724L4.72938 8.77369C4.9989 8.50185 5.18355 8.27919 5.28402 8.10597C5.38446 7.93275 5.43468 7.75048 5.43468 7.55987C5.43468 7.22044 5.31582 6.95274 5.07958 6.75655C4.8426 6.56036 4.56741 6.4624 4.25331 6.4624C3.9392 6.4624 3.68313 6.5241 3.48362 6.6478C3.28482 6.77154 3.10232 6.95555 2.9375 7.19914L3.44897 7.49082C3.65341 7.17995 3.90951 7.02418 4.21862 7.02418C4.39407 7.02418 4.5391 7.07648 4.65436 7.18068C4.76896 7.28488 4.8263 7.41136 4.8263 7.55987C4.8263 7.70832 4.77256 7.85503 4.66504 7.99965C4.55752 8.1447 4.37639 8.34439 4.12173 8.59877Z" fill="#006455"/>
<path d="M8.25414 10.2586V9.32568H8.70616V8.75831H8.25414V8.07976H7.65142V8.75831H6.75298L8.11407 6.55261H7.42007L6.03711 8.77399V9.32568H7.65142V10.2586H8.25414Z" fill="#006455"/>
<path d="M11.9882 10.2589V8.53066C11.9882 8.16298 11.8891 7.88209 11.6896 7.68764C11.4908 7.49318 11.2298 7.39596 10.9065 7.39596C10.7056 7.39596 10.5182 7.44544 10.3441 7.5444C10.1701 7.64336 10.0406 7.77963 9.95431 7.9525V6.3302H9.35156V10.2589H9.95431V8.73212C9.95431 8.47039 10.0314 8.27177 10.1856 8.1355C10.3398 7.99955 10.5209 7.93161 10.7289 7.93161C11.1668 7.93161 11.3854 8.19123 11.3854 8.71089V10.2589H11.9882V10.2589Z" fill="#006455"/>
</svg>
