<svg width="100" height="11" viewBox="0 0 100 11" fill="none" xmlns="http://www.w3.org/2000/svg">
<path d="M13.7732 10.3333H11.258L12.83 0.672623H15.3454L13.7732 10.3333ZM9.14207 0.672623L6.74421 7.31732L6.46047 5.88646L6.46073 5.88698L5.61441 1.54246C5.61441 1.54246 5.51207 0.672623 4.42129 0.672623H0.45716L0.410645 0.836201C0.410645 0.836201 1.62288 1.08842 3.0416 1.94042L5.22678 10.3336H7.8474L11.849 0.672623H9.14207ZM28.9253 10.3333H31.2347L29.2211 0.672365H27.1993C26.2656 0.672365 26.0382 1.39232 26.0382 1.39232L22.287 10.3333H24.9089L25.4333 8.89832H28.6307L28.9253 10.3333ZM26.1576 6.916L27.4792 3.30073L28.2226 6.916H26.1576ZM22.4837 2.9958L22.8426 0.921221C22.8426 0.921221 21.735 0.5 20.5804 0.5C19.3323 0.5 16.3682 1.04552 16.3682 3.69818C16.3682 6.19398 19.847 6.22499 19.847 7.53595C19.847 8.8469 16.7266 8.612 15.6968 7.78532L15.3229 9.95448C15.3229 9.95448 16.446 10.5 18.1619 10.5C19.8783 10.5 22.4677 9.6113 22.4677 7.19251C22.4677 4.68069 18.9576 4.44682 18.9576 3.35474C18.9578 2.26241 21.4074 2.40273 22.4837 2.9958Z" fill="#2566AF"/>
<path d="M6.46073 5.88672L5.61441 1.5422C5.61441 1.5422 5.51207 0.672363 4.42129 0.672363H0.45716L0.410645 0.835942C0.410645 0.835942 2.31596 1.2308 4.14349 2.71025C5.89091 4.12431 6.46073 5.88672 6.46073 5.88672Z" fill="#E6A540"/>
<path fill-rule="evenodd" clip-rule="evenodd" d="M71.482 0.5H64.8391C65.1963 2.71428 67.3391 4.7857 69.6962 4.7857H74.9819C75.0534 4.57142 75.0534 4.2857 75.0534 4.07142C75.0534 2.07142 73.4819 0.5 71.482 0.5Z" fill="url(#paint0_linear_687_2224)"/>
<path fill-rule="evenodd" clip-rule="evenodd" d="M65.4106 5.14282V10.5H68.6249V7.64282H71.4821C73.0535 7.64282 74.4106 6.57139 74.8392 5.14282H65.4106Z" fill="#4DB45F"/>
<path fill-rule="evenodd" clip-rule="evenodd" d="M53.9819 0.5V10.5H56.8391C56.8391 10.5 57.5534 10.5 57.9105 9.78569C59.8391 5.92856 60.4105 4.7857 60.4105 4.7857H60.7676V10.5H63.9819V0.5H61.1248C61.1248 0.5 60.4105 0.571428 60.0533 1.21428C58.4105 4.49999 57.5534 6.21427 57.5534 6.21427H57.1962V0.5H53.9819Z" fill="#4DB45F"/>
<path fill-rule="evenodd" clip-rule="evenodd" d="M40.4106 10.5V0.5H43.6249C43.6249 0.5 44.5535 0.5 45.0535 1.92857C46.3392 5.71427 46.4821 6.21427 46.4821 6.21427C46.4821 6.21427 46.7678 5.2857 47.9106 1.92857C48.4106 0.5 49.3392 0.5 49.3392 0.5H52.5535V10.5H49.3392V5.14284H48.982L47.1963 10.5H45.7678L43.9821 5.14284H43.6249V10.5H40.4106Z" fill="#4DB45F"/>
<path d="M93.6877 9.43075H89.313V1.56885H93.6878L93.6877 9.43075Z" fill="#FF5F00"/>
<path d="M89.5902 5.5C89.5902 3.90521 90.3369 2.48457 91.4997 1.56905C90.6195 0.875021 89.5309 0.498349 88.41 0.500005C85.6489 0.500005 83.4106 2.73855 83.4106 5.5C83.4106 8.26145 85.6489 10.5 88.41 10.5C89.5309 10.5017 90.6196 10.125 91.4998 9.43095C90.337 8.51559 89.5902 7.09487 89.5902 5.5Z" fill="#EB001B"/>
<path d="M99.5895 5.5C99.5895 8.26145 97.3513 10.5 94.5902 10.5C93.4691 10.5016 92.3804 10.125 91.5 9.43095C92.6631 8.51543 93.4098 7.09487 93.4098 5.5C93.4098 3.90513 92.6631 2.48457 91.5 1.56905C92.3803 0.875042 93.4691 0.498378 94.5901 0.500005C97.3512 0.500005 99.5894 2.73855 99.5894 5.5" fill="#F79E1B"/>
<defs>
<linearGradient id="paint0_linear_687_2224" x1="64.8207" y1="2.64285" x2="75.0534" y2="2.64285" gradientUnits="userSpaceOnUse">
<stop stop-color="#00B4E6"/>
<stop offset="1" stop-color="#088CCB"/>
</linearGradient>
</defs>
</svg>
