<svg width="25" height="25" viewBox="0 0 25 25" fill="none" xmlns="http://www.w3.org/2000/svg">
<g clip-path="url(#clip0_1_1920)">
<path d="M0.12207 0.122025C0.0537109 0.185501 0 0.297806 0 0.366165C0 0.434525 0.0537109 0.546829 0.12207 0.610306L0.239258 0.732376H6.65039C12.0898 0.732376 13.1152 0.747025 13.4033 0.805618C13.8574 0.903275 14.4629 1.20601 14.7949 1.50874L15.0635 1.75288L7.63184 1.75777H0.200195L0.102539 1.88472C-0.0244141 2.04585 -0.0292969 2.2021 0.0927734 2.34859L0.185547 2.46577L8.99414 2.49019C17.3877 2.5146 17.8125 2.51949 18.0664 2.60249C18.9697 2.91011 19.6387 3.47652 20.0732 4.30659C20.1807 4.51656 20.3076 4.70699 20.3613 4.73628C20.415 4.76558 20.8398 4.78511 21.3477 4.78511C22.334 4.78511 22.4951 4.82417 22.7637 5.10738C23.1689 5.54195 23.8721 7.63179 24.1992 9.3896C24.2773 9.83394 24.2822 9.873 24.2041 10.0341C24.1309 10.1904 23.8281 10.4101 23.8281 10.3076C23.8281 10.1806 23.5645 8.84273 23.4326 8.32515C23.2324 7.50972 22.8125 6.24507 22.6074 5.83492C22.4561 5.53707 22.4072 5.48335 22.1729 5.36128L21.9141 5.22457H20.415C18.7061 5.22457 18.623 5.2441 18.3789 5.61031C18.1689 5.92769 18.1738 6.14253 18.3984 6.73824C19.1113 8.63765 19.6631 11.2402 20.0195 14.3505C20.0732 14.8193 20.1123 15.2099 20.1025 15.2148C20.0928 15.2246 19.8584 15.1611 19.5801 15.0683L19.0674 14.9121L19.082 14.7412C19.1357 14.0087 18.6572 11.0595 18.1934 9.25288C17.7148 7.41207 17.5146 6.96773 16.8457 6.2939C16.4941 5.94234 16.3477 5.83492 15.9619 5.64449C15.3711 5.3564 15.0488 5.27339 14.3555 5.23921C13.8281 5.2148 13.7842 5.21968 13.6621 5.32222C13.4766 5.46382 13.4814 5.66402 13.667 5.82515C13.7891 5.92769 13.8721 5.94722 14.3457 5.97164C15.2197 6.01558 15.791 6.25972 16.3574 6.83101C16.8896 7.36812 17.1045 7.89058 17.5781 9.81441C17.998 11.5136 18.4521 14.4775 18.3154 14.6142C18.2812 14.6484 17.7881 14.5166 16.7627 14.1943C15.9375 13.9355 13.6377 13.2177 11.6553 12.5976C9.17969 11.8261 7.92969 11.4111 7.65137 11.2744C6.60645 10.7568 5.79102 9.86812 5.35645 8.78902C5.18555 8.35933 4.58008 6.17671 4.59961 6.06929C4.61426 5.98628 4.81934 5.9814 8.59375 5.97164C11.4893 5.96187 12.6025 5.94234 12.6807 5.90328C12.9248 5.77632 12.915 5.39058 12.6611 5.27828C12.5098 5.20992 4.69238 5.20015 4.44824 5.27339C4.11133 5.37105 3.85742 5.71285 3.85742 6.07417C3.85742 6.28902 4.37012 8.1982 4.61914 8.90621C5.07324 10.2099 6.16211 11.3964 7.45605 11.997C7.66602 12.0947 8.15918 12.2753 8.5498 12.4023L9.2627 12.6318L12.7734 15.3125C14.7021 16.7871 16.4453 18.1494 16.6357 18.3398C16.8994 18.5986 17.0361 18.7841 17.1631 19.0527C17.4316 19.6142 17.4805 19.9365 17.4805 21.2011V22.3144H15.0684H12.6562L12.6318 21.5918C12.6123 21.0009 12.5879 20.7959 12.4805 20.4394C12.2266 19.5849 11.8359 18.9599 11.1719 18.33C10.6836 17.8759 10.1807 17.5732 9.53125 17.3535C7.32422 16.6064 4.91699 17.6562 3.92578 19.7998C3.67676 20.3418 3.56445 20.8691 3.53027 21.6406L3.50098 22.3144H1.87012H0.239258L0.12207 22.4365C0.0537109 22.5 0 22.6123 0 22.6806C0 22.749 0.0537109 22.8613 0.12207 22.9248L0.239258 23.0468H2.65137H5.06836L5.23438 23.3252C5.42969 23.6572 5.625 23.75 5.83496 23.6132C6.03516 23.4814 6.04004 23.33 5.84473 22.9101C5.60547 22.3974 5.55176 22.163 5.55176 21.6992C5.55664 20.9814 5.80078 20.4101 6.31836 19.8974C6.63086 19.5898 7.08496 19.331 7.4707 19.2431C7.8418 19.1552 8.49609 19.1796 8.84766 19.2871C9.76562 19.5703 10.4639 20.4003 10.6055 21.3769C10.7178 22.1484 10.4492 22.9443 9.88281 23.5107C9.1748 24.2187 8.11523 24.4482 7.19238 24.0918C6.80176 23.9404 6.62598 23.9306 6.49414 24.0478C6.38184 24.1503 6.3623 24.3994 6.45508 24.5263C6.55273 24.6484 7.03125 24.8388 7.47559 24.9316C8.53027 25.1464 9.61914 24.8095 10.4004 24.0234C10.6152 23.8086 10.835 23.5302 10.9277 23.3496L11.0889 23.0468H16.7627H22.4365L22.6807 22.9296C22.9492 22.8076 23.2178 22.5341 23.3203 22.2851C23.374 22.1533 23.3887 21.6308 23.3887 19.6142C23.3887 16.6796 23.4082 16.8066 22.9199 16.3232L22.6172 16.0156L22.583 15.664C22.2656 12.1972 21.6846 8.98433 20.9473 6.62105C20.8398 6.27925 20.752 5.98628 20.752 5.97652C20.752 5.96675 20.9912 5.95699 21.2793 5.95699C21.7236 5.95699 21.8213 5.97164 21.8848 6.04C21.9287 6.08882 22.0605 6.40132 22.1826 6.73824C22.583 7.84175 22.8613 8.91597 23.0469 10.0781C23.1592 10.7617 23.2178 10.8886 23.4619 11.0058C24.0869 11.3037 25 10.6054 25 9.83394C25 9.40425 24.5361 7.44625 24.209 6.4941C23.9502 5.74214 23.584 4.93159 23.3936 4.69722C23.3105 4.5898 23.1396 4.43355 23.0127 4.35054C22.6416 4.1064 22.3877 4.05269 21.5381 4.05269L20.7764 4.04781L20.6104 3.75484C20.21 3.05659 19.6533 2.53902 18.9209 2.17769C18.2568 1.84566 18.0273 1.79683 16.9922 1.77242L16.0889 1.748L15.6982 1.37202C15.2002 0.893509 14.7705 0.590775 14.2529 0.346634C13.4912 -0.0146942 13.8477 -4.57764e-05 6.66504 -4.57764e-05H0.239258L0.12207 0.122025ZM20.1904 6.65035C20.6055 7.95894 21.0352 9.80464 21.333 11.5722C21.5723 12.9882 21.8994 15.7714 21.8311 15.7714C21.7773 15.7714 20.9717 15.5029 20.918 15.4687C20.8887 15.4492 20.8496 15.249 20.8301 15.0293C20.5908 12.1337 19.917 8.7939 19.1602 6.69917C19.0381 6.36714 18.9502 6.06441 18.9648 6.02535C18.9844 5.97164 19.1064 5.95699 19.4775 5.95699H19.9658L20.1904 6.65035ZM16.9922 15.039C20.5469 16.1474 22.2412 16.6992 22.3535 16.7822C22.666 17.0166 22.6562 16.9384 22.6562 19.6044V22.0312L22.5146 22.1728L22.373 22.3144H20.2979H18.2227L18.1982 21.0058C18.1738 19.5703 18.1494 19.4043 17.8467 18.7744C17.6318 18.3203 17.2607 17.8515 16.8848 17.5488C16.7139 17.4121 15.6885 16.621 14.5996 15.791C11.6016 13.5009 11.377 13.3252 11.377 13.3056C11.377 13.2812 10.9277 13.1445 16.9922 15.039ZM9.07227 17.9736C9.59961 18.1054 10.2393 18.457 10.6494 18.8378C11.5088 19.6337 11.9141 20.5761 11.9141 21.7822V22.3144H11.6357H11.3525V21.7382C11.3477 20.7617 11.0742 20.0976 10.3809 19.4043C9.73145 18.7548 9.00879 18.457 8.08105 18.457C7.1582 18.457 6.43066 18.7548 5.78125 19.4043C5.11719 20.0732 4.81445 20.8252 4.82422 21.7871L4.8291 22.3144H4.53125H4.2334L4.2627 21.665C4.29199 20.9423 4.36523 20.6054 4.61914 20.0732C5.09766 19.0576 5.88379 18.3593 6.94336 18.0175C7.59277 17.8076 8.36426 17.7929 9.07227 17.9736Z" fill="#006455"/>
<path d="M0.12207 5.3418C-0.0341797 5.49805 -0.0341797 5.68359 0.12207 5.83496C0.234375 5.95215 0.263672 5.95703 0.927734 5.95703C1.6748 5.95703 1.88965 6.00586 2.02148 6.21094C2.12402 6.37207 3.125 9.90234 3.125 10.1123C3.125 10.2197 3.08594 10.3418 3.02246 10.4199C2.81738 10.6787 2.74414 10.6934 1.4209 10.6934H0.200195L0.102539 10.8203C-0.0341797 10.9912 -0.0244141 11.1572 0.12207 11.3037L0.239258 11.4258H1.45508C2.83203 11.4258 3.02246 11.3916 3.35938 11.1035C3.67188 10.8398 3.81836 10.5518 3.84277 10.166C3.8623 9.86328 3.82324 9.69238 3.33008 7.97852C3.03711 6.95801 2.74902 6.03516 2.69531 5.92773C2.57324 5.69336 2.3877 5.5127 2.09961 5.36621C1.89941 5.25879 1.80664 5.24902 1.06445 5.23438L0.249023 5.21484L0.12207 5.3418Z" fill="#006455"/>
<path d="M7.61724 20.1123C7.15337 20.2636 6.79205 20.5859 6.5772 21.0351C6.46001 21.289 6.4356 21.4062 6.4356 21.6943C6.43072 22.3779 6.75787 22.9052 7.36334 23.2031C7.6563 23.3496 7.72955 23.3642 8.10552 23.3593C8.60845 23.3545 8.87212 23.2519 9.22369 22.9248C9.57525 22.5976 9.74126 22.2021 9.74126 21.7041C9.73638 21.2256 9.5899 20.8691 9.26763 20.5468C8.94048 20.2148 8.64751 20.0976 8.15435 20.083C7.92486 20.0781 7.6856 20.0879 7.61724 20.1123ZM8.57427 20.9228C8.794 21.0547 9.03326 21.4404 9.03326 21.6748C9.03326 22.4463 8.1983 22.9052 7.56841 22.4902C7.20709 22.2509 7.04595 21.6797 7.24126 21.3134C7.33404 21.1328 7.55376 20.9179 7.7149 20.8545C7.95416 20.7617 8.34966 20.791 8.57427 20.9228Z" fill="#006455"/>
</g>
<defs>
<clipPath id="clip0_1_1920">
<rect width="25" height="25" fill="white"/>
</clipPath>
</defs>
</svg>
