<svg width="193" height="40" viewBox="0 0 193 40" fill="none" xmlns="http://www.w3.org/2000/svg">
<path fill-rule="evenodd" clip-rule="evenodd" d="M26.1506 21.7962V20.0006V18.204L24.6817 17.6061L24.5729 17.5618V17.4442V15.2923H22.4329H22.3156L22.2718 15.183L21.6772 13.706H19.8904H18.1046L17.5098 15.183L17.4653 15.2923H17.3489H15.2086V17.4442V17.5618L15.0999 17.6061L13.6312 18.204V20.0006V21.7962L15.0999 22.3941L15.2086 22.439V22.556V24.7079H17.3489H17.4653L17.5098 24.8172L18.1046 26.2942H19.8904H21.6772L22.2718 24.8172L22.3156 24.7079H22.4329H24.5729V22.556V22.439L24.6817 22.3941L26.1506 21.7962ZM24.8079 24.9351L24.8016 24.9378L24.7987 24.9442L21.1062 34.9479L21.9169 36.4803L25.79 26.0202L25.8172 25.9459L25.8918 25.9177L36.28 22.0374L34.757 21.2223L24.8079 24.9351ZM14.9829 24.9442L14.9802 24.9378L14.9739 24.9351L5.02484 21.2223L3.50159 22.0374L13.8898 25.9177L13.9673 25.9473L13.9693 25.9543L13.9763 25.9563L14.0055 26.0342L17.8647 36.4796L18.6754 34.9479L14.9829 24.9442ZM14.9739 15.0651L14.9802 15.0624L14.9829 15.056L18.6754 5.05226L17.8647 3.52064L14.0055 13.966L13.9909 14.0046L13.9664 14.0292L13.9525 14.0432L13.9275 14.0683L13.8898 14.0825L3.50159 17.9628L5.02484 18.7779L14.9739 15.0651ZM24.7987 15.056L24.8016 15.0624L24.8079 15.0651L34.757 18.7779L36.28 17.9628L25.8918 14.0825L25.8138 14.0536L25.8116 14.0466L25.8046 14.0446L25.7761 13.966L21.9169 3.52064L21.1062 5.05226L24.7987 15.056ZM10.8031 12.7099L12.1381 12.1913L12.6399 10.863V10.8623L16.6865 0.257942L16.6881 0.255008L16.7458 0.110001L16.7891 0H16.9069H17.061H18.4391H18.5932H18.7102L18.7542 0.110001L18.8093 0.248688L19.8828 2.54149L20.9723 0.248688L21.0275 0.110001L21.0707 0H21.1884H21.3425H22.7206H22.8747H22.992L23.0358 0.110001L23.0937 0.255008L23.0944 0.257942L27.6603 12.194L39.525 16.779L39.528 16.7797L39.6722 16.8379L39.7816 16.882V16.9996V17.1546V18.5403V18.6953V18.8138L39.6722 18.8572L39.534 18.9125L37.254 20.0082L39.534 21.0877L39.6722 21.143L39.7816 21.187V21.305V21.4599V22.8456V23.0006V23.1189L39.6722 23.1623L39.528 23.2206L39.525 23.2219L28.9787 27.291L27.6477 27.8306L27.141 29.1379H27.1416L23.0951 39.7423L23.0937 39.7452L23.0358 39.8902L22.992 40.0002H22.8747H22.7206H21.3425H21.1884H21.0707L21.0275 39.8902L20.9723 39.7515L19.8828 37.4587L18.8093 39.7515L18.7542 39.8902L18.7102 40.0002H18.5932H18.4391H17.061H16.9069H16.7891L16.7458 39.8902L16.6881 39.7452L16.6865 39.7423L12.1269 27.7885L0.25653 23.2219L0.253832 23.2206L0.109399 23.1623L0 23.1189V23.0006V22.8456V21.4599V21.305V21.187L0.109399 21.143L0.247547 21.0877L2.5278 20.0082L0.247547 18.9125L0.109399 18.8572L0 18.8138V18.6953V18.5403V17.1546V16.9996V16.882L0.109399 16.8379L0.253832 16.7797L0.25653 16.7783L10.8031 12.7093V12.7099ZM19.8904 8.68808L19.0177 11.3558H19.8904H20.7641L19.8904 8.68808ZM8.64055 20.0006L11.2937 20.8781V20.0006V19.1221L8.64055 20.0006ZM19.0177 28.6444L19.8904 31.3121L20.7641 28.6444H19.8904H19.0177ZM28.4879 20.8781L31.141 20.0006L28.4879 19.1221V20.0006V20.8781ZM119.83 9.6704C120.34 9.13892 121.067 8.83806 121.928 8.83806H127.268C128.129 8.83806 128.855 9.13892 129.365 9.6704C129.869 10.1951 130.161 10.9432 130.161 11.8453V28.161C130.161 29.0638 129.869 29.8117 129.365 30.3366C128.855 30.8678 128.129 31.1687 127.268 31.1687H121.928C121.067 31.1687 120.34 30.8678 119.83 30.3366C119.326 29.8117 119.034 29.0638 119.034 28.161V11.8453C119.034 10.9432 119.326 10.1951 119.83 9.6704ZM79.4113 8.84485H81.7904V8.83174H81.9115H87.0131C87.8768 8.83174 88.6058 9.12108 89.1166 9.64261C89.6175 10.1538 89.9064 10.8858 89.9064 11.7845V17.104C89.9064 17.4403 89.8037 17.7909 89.6258 18.1184C89.4663 18.412 89.2442 18.6892 88.9802 18.922C89.2462 19.1958 89.4695 19.5294 89.6299 19.8887C89.8055 20.2833 89.9064 20.7107 89.9064 21.1261V28.1682C89.9064 29.0704 89.6151 29.8189 89.111 30.3431C88.6006 30.8744 87.8741 31.1757 87.0131 31.1757H81.9966H81.5444H79.4113H79.29V31.054V8.96658V8.84485H79.4113ZM82.1179 20.5709V28.3539H86.2557C86.5003 28.3539 86.6831 28.2963 86.8004 28.1791C86.9174 28.0618 86.9776 27.8753 86.9776 27.618V21.553C86.9776 21.2853 86.8817 21.0326 86.7222 20.8501C86.5735 20.68 86.3675 20.5709 86.1335 20.5709H82.1179ZM82.1179 11.5989V17.5356H86.011C86.2696 17.5356 86.5227 17.4394 86.7051 17.2754C86.8698 17.1264 86.9776 16.9199 86.9776 16.6769V12.3345C86.9776 12.0768 86.9174 11.8907 86.8004 11.7735C86.6831 11.6562 86.5003 11.5989 86.2557 11.5989H82.1179ZM192.472 31.1687H186.759C185.898 31.1687 185.171 30.8678 184.661 30.3366C184.157 29.8117 183.865 29.0638 183.865 28.161V11.8453C183.865 10.9432 184.157 10.1951 184.661 9.6704C185.171 9.13892 185.898 8.83806 186.759 8.83806H192.472H192.594V8.95981V11.5381V11.6599H192.472H187.516C187.272 11.6599 187.089 11.7172 186.972 11.8345C186.854 11.9519 186.794 12.1378 186.794 12.3955V27.6112C186.794 27.8687 186.854 28.0548 186.972 28.1721C187.089 28.2893 187.272 28.3469 187.516 28.3469H192.472H192.594V28.4689V31.047V31.1687H192.472ZM165.097 22.8533H169.85L169.811 22.6699L167.689 12.6234L167.287 12.6227L165.137 22.6692V22.6694L165.097 22.8533ZM171.61 31.074L170.397 25.7363H164.55L163.337 31.074L163.315 31.1687H163.219H160.518H160.367L160.4 31.0207L165.292 8.93361L165.312 8.83806H165.41H169.561H169.658L169.679 8.93361L174.548 31.0207L174.58 31.1687H174.43H171.728H171.631L171.61 31.074ZM60.5225 22.8533H65.2751L65.236 22.6699L63.1141 12.6234L62.7129 12.6227L60.5622 22.6692V22.6694L60.5225 22.8533ZM67.0353 31.074L65.8227 25.7363H59.9755L58.7627 31.074L58.7409 31.1687H58.6448H55.9433H55.7924L55.8254 31.0207L60.717 8.93361L60.7379 8.83806H60.8349H64.9866H65.0835L65.1046 8.93361L69.9733 31.0207L70.0056 31.1687H69.8554H67.1532H67.0569L67.0353 31.074ZM111.49 8.95981V11.5993V11.7211H111.369H106.771V31.047V31.1687H106.65H104.061H103.94V31.047V11.7211H99.3419H99.2209V11.5993V8.95981V8.83806H99.3419H111.369H111.49V8.95981ZM140.587 8.83806H142.966V8.82496H143.087H148.189C149.053 8.82496 149.782 9.11431 150.293 9.63584C150.793 10.147 151.082 10.8788 151.082 11.7778V17.097C151.082 17.4335 150.979 17.7845 150.801 18.1114C150.642 18.405 150.42 18.6826 150.156 18.9152C150.422 19.1885 150.645 19.5224 150.805 19.8822C150.981 20.2766 151.082 20.7041 151.082 21.1193V28.161C151.082 29.0638 150.791 29.8117 150.287 30.3366C149.776 30.8678 149.05 31.1687 148.189 31.1687H143.172H142.72H140.587H140.466V31.047V8.95981V8.83806H140.587ZM143.293 20.5643V28.3469H147.431C147.676 28.3469 147.859 28.2893 147.976 28.1721C148.093 28.0548 148.153 27.8687 148.153 27.6112V21.5464C148.153 21.2785 148.057 21.0258 147.898 20.8433C147.749 20.6732 147.543 20.5643 147.309 20.5643H143.293ZM143.293 11.5919V17.5289H147.187C147.445 17.5289 147.698 17.4329 147.88 17.2684H147.881C148.046 17.1198 148.153 16.9131 148.153 16.6701V12.328C148.153 12.0703 148.093 11.8841 147.976 11.7667C147.859 11.6495 147.676 11.5919 147.431 11.5919H143.293ZM122.141 28.1721C122.258 28.2893 122.441 28.3469 122.685 28.3469H126.51C126.754 28.3469 126.937 28.2893 127.054 28.1721C127.172 28.0548 127.232 27.8687 127.232 27.6112V12.3955C127.232 12.1378 127.172 11.9519 127.054 11.8345C126.937 11.7172 126.754 11.6599 126.51 11.6599H122.685C122.441 11.6599 122.258 11.7172 122.141 11.8345C122.023 11.9519 121.963 12.1378 121.963 12.3955V27.6112C121.963 27.8687 122.023 28.0548 122.141 28.1721Z" fill="#006455"/>
</svg>
