<svg width="15" height="15" viewBox="0 0 15 15" fill="none" xmlns="http://www.w3.org/2000/svg">
<circle cx="7.5" cy="7.5" r="7" stroke="#006455"/>
<path d="M6.86516 2.8845C7.4155 2.78777 7.79063 2.72666 8.31414 2.8845C9.27561 3.1744 8.46496 5.60114 8.31414 7.33603C8.23728 8.22007 8.01736 9.59386 8.01736 9.59386H7.16194C7.16194 9.59386 6.94201 8.22007 6.86516 7.33603C6.71433 5.60114 6.0553 3.02685 6.86516 2.8845ZM6.56838 11.2744C6.56838 11.0435 6.65567 10.8639 6.83024 10.7356C7.01646 10.5988 7.26086 10.5303 7.56346 10.5303C7.8777 10.5303 8.12792 10.5988 8.31414 10.7356C8.50035 10.8639 8.59346 11.0435 8.59346 11.2744C8.59346 11.4968 8.50035 11.6764 8.31414 11.8132C8.12792 11.95 7.8777 12.0185 7.56346 12.0185C7.26086 12.0185 7.01646 11.95 6.83024 11.8132C6.65567 11.6764 6.56838 11.4968 6.56838 11.2744Z" fill="#006455"/>
</svg>
