<svg width="14" height="16" viewBox="0 0 14 16" fill="none" xmlns="http://www.w3.org/2000/svg">
<path d="M11.2051 13.0366H2.10071V13.6292H11.2051V13.0366Z" fill="#006455"/>
<path d="M7.00307 4.14844H2.10071V4.74103H7.00307V4.14844Z" fill="#006455"/>
<path d="M11.2051 11.259H2.10071V11.8516H11.2051V11.259Z" fill="#006455"/>
<path d="M7.00307 2.37012H2.10071V2.96271H7.00307V2.37012Z" fill="#006455"/>
<path d="M9.10438 0H8.75423H1.40067C0.630285 0 0 0.533318 0 1.18519V14.8148C0 15.4667 0.630285 16 1.40067 16H11.9057C12.6761 16 13.3064 15.4667 13.3064 14.8148V4.44446V4.14818L9.10438 0ZM9.10438 0.888904L12.396 4.14818H9.80471C9.45456 4.14818 9.10438 3.8519 9.10438 3.55559V0.888904ZM12.6061 14.8148C12.6061 15.1111 12.3259 15.4074 11.9057 15.4074H1.40067C1.05052 15.4074 0.700337 15.1704 0.700337 14.8148V1.18519C0.700337 0.888904 0.980471 0.592593 1.40067 0.592593H8.40404V3.55556C8.40404 4.20742 9.03436 4.74074 9.80471 4.74074H12.6061V14.8148Z" fill="#006455"/>
<path d="M11.2051 9.48145H2.10071V10.074H11.2051V9.48145Z" fill="#006455"/>
<path d="M11.2051 5.92603H2.10071V6.51862H11.2051V5.92603Z" fill="#006455"/>
<path d="M11.2051 7.70361H2.10071V8.29621H11.2051V7.70361Z" fill="#006455"/>
</svg>
