<svg width="17" height="19" viewBox="0 0 17 19" fill="none" xmlns="http://www.w3.org/2000/svg">
<path d="M11.0003 12.0501C12.3639 12.0501 13.2729 12.8495 13.2729 13.7501H16V1H13.2729C13.2729 1.85001 12.3639 2.70002 11.0003 2.70002C9.63681 2.70002 8.72779 1.85001 8.72779 1H6.00073V6.95006" stroke="#7A7A7A" stroke-width="0.998484" stroke-linecap="round" stroke-linejoin="round"/>
<path d="M10.9992 17.9999H8.27216C8.27216 17.0993 7.36314 16.2999 5.99961 16.2999C4.63608 16.2999 3.72706 17.0993 3.72706 17.9999H1V5.24976H3.72706C3.72706 6.09976 4.63608 6.94977 5.99961 6.94977C7.36314 6.94977 8.27216 6.09976 8.27216 5.24976H10.9992V17.9999Z" stroke="#7A7A7A" stroke-width="0.998484" stroke-linecap="round" stroke-linejoin="round"/>
<path d="M3.72738 10.3502C4.22942 10.3502 4.6364 9.9696 4.6364 9.50016C4.6364 9.03071 4.22942 8.65015 3.72738 8.65015C3.22534 8.65015 2.81836 9.03071 2.81836 9.50016C2.81836 9.9696 3.22534 10.3502 3.72738 10.3502Z" fill="#7A7A7A"/>
<path d="M6.00082 10.3502C6.50286 10.3502 6.90984 9.9696 6.90984 9.50016C6.90984 9.03071 6.50286 8.65015 6.00082 8.65015C5.49878 8.65015 5.0918 9.03071 5.0918 9.50016C5.0918 9.9696 5.49878 10.3502 6.00082 10.3502Z" fill="#7A7A7A"/>
<path d="M8.27328 10.3502C8.77532 10.3502 9.1823 9.9696 9.1823 9.50016C9.1823 9.03071 8.77532 8.65015 8.27328 8.65015C7.77124 8.65015 7.36426 9.03071 7.36426 9.50016C7.36426 9.9696 7.77124 10.3502 8.27328 10.3502Z" fill="#7A7A7A"/>
</svg>
