<svg width="15" height="15" viewBox="0 0 15 15" fill="none" xmlns="http://www.w3.org/2000/svg">
<path d="M10.7368 3.75C10.7368 5.5342 9.28805 6.98684 7.5 6.98684C5.71195 6.98684 4.26316 5.5342 4.26316 3.75C4.26316 1.96153 5.71153 0.513158 7.5 0.513158C9.28847 0.513158 10.7368 1.96153 10.7368 3.75ZM0.513158 13.125C0.513158 12.6888 0.727368 12.2692 1.16852 11.8622C1.61324 11.4518 2.25368 11.0896 3.0037 10.7895C4.50455 10.1891 6.31474 9.88816 7.5 9.88816C8.68526 9.88816 10.4955 10.1891 11.9963 10.7895C12.7463 11.0896 13.3868 11.4518 13.8315 11.8622C14.2726 12.2692 14.4868 12.6888 14.4868 13.125V14.4868H0.513158V13.125Z" stroke="#006455" stroke-width="1.02632"/>
</svg>
