<svg width="192" height="225" viewBox="0 0 192 225" fill="none" xmlns="http://www.w3.org/2000/svg">
<path d="M120 144.643C159.705 144.643 192 112.204 192 72.3214C192 32.4392 159.7 0 120 0H48C39.165 0 32 7.19699 32 16.0714V112.5H16C7.165 112.5 0 119.682 0 128.571C0 137.461 7.165 144.643 16 144.643H32V160.714H16C7.165 160.714 0 167.911 0 176.786C0 185.66 7.165 192.857 16 192.857H32V208.929C32 217.803 39.165 225 48 225C56.835 225 64 217.803 64 208.929V192.857H144C152.835 192.857 160 185.66 160 176.786C160 167.911 152.835 160.714 144 160.714H64V144.643H120ZM64 32.1429H120C142.05 32.1429 160 50.173 160 72.3214C160 94.4699 142.05 112.5 120 112.5H64V32.1429Z" fill="#BEBEBE" fill-opacity="0.5"/>
</svg>
