<svg width="23" height="22" viewBox="0 0 23 22" fill="none" xmlns="http://www.w3.org/2000/svg">
<path d="M13.259 9.96616C12.7382 10.3141 12.126 10.4998 11.4997 10.4998C10.6598 10.4998 9.85437 10.1662 9.2605 9.57234C8.66664 8.97848 8.33301 8.17302 8.33301 7.33317C8.33301 6.70687 8.51873 6.09462 8.86669 5.57387C9.21465 5.05311 9.70921 4.64723 10.2878 4.40755C10.8665 4.16788 11.5032 4.10517 12.1175 4.22735C12.7317 4.34954 13.296 4.65113 13.7388 5.094C14.1817 5.53687 14.4833 6.10111 14.6055 6.71539C14.7277 7.32966 14.665 7.96637 14.4253 8.545C14.1856 9.12364 13.7797 9.6182 13.259 9.96616Z" stroke="#006455"/>
<path d="M17.2943 18.6278C17.2162 18.7059 17.1102 18.7498 16.9997 18.7498H5.99967C5.88917 18.7498 5.78319 18.7059 5.70505 18.6278C5.62691 18.5497 5.58301 18.4437 5.58301 18.3332C5.58301 16.764 6.20637 15.259 7.31596 14.1495C8.42555 13.0399 9.93048 12.4165 11.4997 12.4165C13.0689 12.4165 14.5738 13.0399 15.6834 14.1495C16.793 15.259 17.4163 16.764 17.4163 18.3332C17.4163 18.4437 17.3724 18.5497 17.2943 18.6278Z" stroke="#006455"/>
</svg>
