<svg width="30" height="37" viewBox="0 0 30 37" fill="none" xmlns="http://www.w3.org/2000/svg">
<path d="M22.7779 23.75V22.8654C22.7779 21.4209 23.8187 20.25 25.1027 20.25C26.3853 20.25 27.4256 21.4186 27.4274 22.8616L27.4368 30.0371C27.4411 33.3289 25.0702 36 22.1442 36H16.2813C12.8489 36 9.6196 34.1702 7.57637 31.0676L4.259 26.0304C3.69875 25.1797 3.64916 24.0331 4.13338 23.1251C4.91225 21.6647 6.70371 21.4166 7.77424 22.6209L8.77789 23.75V11.5C8.77789 10.0502 9.82252 8.875 11.1112 8.875C12.3999 8.875 13.4446 10.0502 13.4446 11.5V21.8906V15.898C13.4446 14.4355 14.4984 13.25 15.7983 13.25C17.0983 13.25 18.1521 14.4355 18.1521 15.898V22.875V21.9114C18.1521 20.4744 19.1877 19.3094 20.465 19.3094C21.7424 19.3094 22.7779 20.4744 22.7779 21.9114V23.75Z" stroke="#006455" stroke-width="2" stroke-linecap="round" stroke-linejoin="round"/>
<path d="M21.2227 1V8" stroke="#006455" stroke-width="2" stroke-linecap="round"/>
<path d="M8.77778 15H1V11.5C2.55556 11.5 4.11111 10.1875 4.09091 8C4.07071 5.8125 2.55556 4.5 1 4.5V1H29V4.5C27.4444 4.5 25.9293 5.8125 25.9091 8C25.8889 10.1875 27.4444 11.5 29 11.5V15H18.1111" stroke="#006455" stroke-width="2" stroke-linecap="round" stroke-linejoin="round"/>
</svg>
