<svg width="24" height="24" viewBox="0 0 24 24" fill="none" xmlns="http://www.w3.org/2000/svg">
<path d="M5.24999 15H6.74999C7.57874 15 8.24999 14.328 8.24999 13.4999V12C8.24999 11.1712 7.57874 10.5 6.74999 10.5H5.24999C4.42124 10.5 3.74999 11.1712 3.74999 12V13.4999C3.74999 14.328 4.42124 15 5.24999 15ZM5.24999 12H6.74999V13.4999H5.24999V12ZM17.25 20.9999H18.75C19.5787 20.9999 20.25 20.3287 20.25 19.5V18C20.25 17.1713 19.5787 16.5 18.75 16.5H17.25C16.422 16.5 15.75 17.1713 15.75 18V19.5C15.75 20.3287 16.4212 20.9999 17.25 20.9999ZM17.25 18H18.75V19.5H17.25V18ZM17.25 15H18.75C19.5787 15 20.25 14.328 20.25 13.4999V12C20.25 11.1712 19.5787 10.5 18.75 10.5H17.25C16.422 10.5 15.75 11.1712 15.75 12V13.4999C15.75 14.328 16.4212 15 17.25 15ZM17.25 12H18.75V13.4999H17.25V12ZM20.25 1.5H17.25V0.749999C17.25 0.335992 16.914 0 16.5 0C16.086 0 15.75 0.335992 15.75 0.749999V1.5H8.25002V0.749999C8.24999 0.335992 7.914 0 7.49999 0C7.08598 0 6.74999 0.335992 6.74999 0.749999V1.5H3.74999C2.09327 1.5 0.75 2.84327 0.75 4.49999V20.9999C0.75 22.6567 2.09327 24 3.74999 24H20.25C21.9067 24 23.25 22.6567 23.25 20.9999V4.49999C23.25 2.84323 21.9067 1.5 20.25 1.5ZM21.75 20.9999C21.75 21.8287 21.0788 22.5 20.25 22.5H3.74999C2.92125 22.5 2.25 21.8279 2.25 20.9999V7.49999H21.75V20.9999H21.75ZM21.75 5.99999H2.25V4.49999C2.25 3.67124 2.92125 3 3.74999 3H6.74999V3.74999C6.74999 4.164 7.08598 4.49999 7.49999 4.49999C7.914 4.49999 8.24999 4.164 8.24999 3.74999V3H15.75V3.74999C15.75 4.164 16.086 4.49999 16.5 4.49999C16.9139 4.49999 17.25 4.164 17.25 3.74999V3H20.25C21.0788 3 21.75 3.67124 21.75 4.49999V5.99999ZM11.25 20.9999H12.75C13.5787 20.9999 14.25 20.3287 14.25 19.5V18C14.25 17.1713 13.5787 16.5 12.75 16.5H11.25C10.422 16.5 9.74999 17.1713 9.74999 18V19.5C9.74999 20.3287 10.4212 20.9999 11.25 20.9999ZM11.25 18H12.75V19.5H11.25V18ZM11.25 15H12.75C13.5787 15 14.25 14.328 14.25 13.4999V12C14.25 11.1712 13.5787 10.5 12.75 10.5H11.25C10.422 10.5 9.74999 11.1712 9.74999 12V13.4999C9.74999 14.328 10.4212 15 11.25 15ZM11.25 12H12.75V13.4999H11.25V12ZM5.24999 20.9999H6.74999C7.57874 20.9999 8.24999 20.3287 8.24999 19.5V18C8.24999 17.1713 7.57874 16.5 6.74999 16.5H5.24999C4.42124 16.5 3.74999 17.1713 3.74999 18V19.5C3.74999 20.3287 4.42124 20.9999 5.24999 20.9999ZM5.24999 18H6.74999V19.5H5.24999V18Z" fill="#006455"/>
</svg>
