<svg width="18" height="20" viewBox="0 0 18 20" fill="none" xmlns="http://www.w3.org/2000/svg">
<path d="M4.33765 16.7583L4.1438 16.6342L3.95625 16.7677L0.340909 19.3392V0.340909H17.6591V19.377L13.5684 16.7583L13.3846 16.6407L13.2008 16.7583L8.76923 19.5952L4.33765 16.7583Z" stroke="#006455" stroke-width="0.681818"/>
<path d="M12.2411 5.77266C12.3742 5.90579 12.3742 6.12165 12.2411 6.25478L10.0715 8.42431C9.93839 8.55745 9.72254 8.55745 9.58941 8.42431C9.45628 8.29118 9.45628 8.07533 9.58941 7.94219L11.5179 6.01372L9.58941 4.08525C9.45628 3.95211 9.45628 3.73626 9.58941 3.60313C9.72254 3.47 9.93839 3.47 10.0715 3.60313L12.2411 5.77266ZM4.65909 14C4.65909 9.6042 5.84023 7.45984 7.4445 6.45855C9.00729 5.48316 10.8871 5.67281 12 5.67281V6.35463C10.7796 6.35463 9.15938 6.19195 7.8055 7.03696C6.4931 7.85607 5.34091 9.70484 5.34091 14H4.65909Z" fill="#006455"/>
</svg>
